HIERARCHY
ROOT Root
{
  OFFSET 0.0 0.0 0.0
  CHANNELS 6 Xposition Yposition Zposition Zrotation Yrotation Xrotation
  JOINT Hips
  {
    OFFSET 0.0 100.0 0.0
    CHANNELS 6 Xposition Yposition Zposition Zrotation Yrotation Xrotation
    JOINT Spine1
    {
      OFFSET 5.003913 -0.037094 -0.013727
      CHANNELS 3 Zrotation Yrotation Xrotation
      JOINT Spine2
      {
        OFFSET 7.125363 -1e-06 0.0
        CHANNELS 3 Zrotation Yrotation Xrotation
        JOINT Chest
        {
          OFFSET 7.594027 1e-06 0.0
          CHANNELS 3 Zrotation Yrotation Xrotation
          JOINT Neck1
          {
            OFFSET 26.313086 -0.460272 -0.181672
            CHANNELS 3 Zrotation Yrotation Xrotation
            JOINT Neck2
            {
              OFFSET 8.045911 0.0 0.0
              CHANNELS 3 Zrotation Yrotation Xrotation
              JOINT Head
              {
                OFFSET 6.432774 0.0 0.0
                CHANNELS 3 Zrotation Yrotation Xrotation
                JOINT HeadEnd
                {
                  OFFSET 16.169773 0.06451 0.00362
                  CHANNELS 3 Zrotation Yrotation Xrotation
                }
                JOINT Jaw
                {
                  OFFSET 0.108741 3.12938 0.002639
                  CHANNELS 3 Zrotation Yrotation Xrotation
                }
                JOINT LeftEye
                {
                  OFFSET 4.45173 8.166359 3.206392
                  CHANNELS 3 Zrotation Yrotation Xrotation
                }
                JOINT RightEye
                {
                  OFFSET 4.436895 8.135758 -3.222429
                  CHANNELS 3 Zrotation Yrotation Xrotation
                }
              }
            }
          }
          JOINT LeftShoulder
          {
            OFFSET 23.218927 5.195579 1.621656
            CHANNELS 3 Zrotation Yrotation Xrotation
            JOINT LeftArm
            {
              OFFSET 15.902118 2e-06 -2e-06
              CHANNELS 3 Zrotation Yrotation Xrotation
              JOINT LeftForeArm
              {
                OFFSET 28.739307 0.0 -1e-06
                CHANNELS 3 Zrotation Yrotation Xrotation
                JOINT LeftHand
                {
                  OFFSET 27.093981 -4e-06 0.0
                  CHANNELS 3 Zrotation Yrotation Xrotation
                  JOINT LeftHandThumb1
                  {
                    OFFSET 2.276781 3.380274 0.83384
                    CHANNELS 3 Zrotation Yrotation Xrotation
                    JOINT LeftHandThumb2
                    {
                      OFFSET 4.705309 -1e-06 -1e-06
                      CHANNELS 3 Zrotation Yrotation Xrotation
                      JOINT LeftHandThumb3
                      {
                        OFFSET 2.798515 0.0 3e-06
                        CHANNELS 3 Zrotation Yrotation Xrotation
                        JOINT LeftHandThumbEnd
                        {
                          OFFSET 3.180793 4e-06 -4e-06
                          CHANNELS 3 Zrotation Yrotation Xrotation
                        }
                      }
                    }
                  }
                  JOINT LeftHandIndex1
                  {
                    OFFSET 3.247786 2.352677 0.137192
                    CHANNELS 3 Zrotation Yrotation Xrotation
                    JOINT LeftHandIndex2
                    {
                      OFFSET 6.367095 1e-06 0.0
                      CHANNELS 3 Zrotation Yrotation Xrotation
                      JOINT LeftHandIndex3
                      {
                        OFFSET 3.662364 0.0 0.0
                        CHANNELS 3 Zrotation Yrotation Xrotation
                        JOINT LeftHandIndex4
                        {
                          OFFSET 2.329242 4e-06 -4e-06
                          CHANNELS 3 Zrotation Yrotation Xrotation
                          JOINT LeftHandIndexEnd
                          {
                            OFFSET 2.767823 1e-06 0.0
                            CHANNELS 3 Zrotation Yrotation Xrotation
                          }
                        }
                      }
                    }
                  }
                  JOINT LeftHandMiddle1
                  {
                    OFFSET 3.163612 0.945023 -0.406112
                    CHANNELS 3 Zrotation Yrotation Xrotation
                    JOINT LeftHandMiddle2
                    {
                      OFFSET 6.276789 3e-06 0.0
                      CHANNELS 3 Zrotation Yrotation Xrotation
                      JOINT LeftHandMiddle3
                      {
                        OFFSET 4.35652 -1e-06 4e-06
                        CHANNELS 3 Zrotation Yrotation Xrotation
                        JOINT LeftHandMiddle4
                        {
                          OFFSET 2.996877 0.0 8e-06
                          CHANNELS 3 Zrotation Yrotation Xrotation
                          JOINT LeftHandMiddleEnd
                          {
                            OFFSET 2.323256 3e-06 -4e-06
                            CHANNELS 3 Zrotation Yrotation Xrotation
                          }
                        }
                      }
                    }
                  }
                  JOINT LeftHandRing1
                  {
                    OFFSET 2.882606 -0.309162 0.107445
                    CHANNELS 3 Zrotation Yrotation Xrotation
                    JOINT LeftHandRing2
                    {
                      OFFSET 6.033198 0.0 4e-06
                      CHANNELS 3 Zrotation Yrotation Xrotation
                      JOINT LeftHandRing3
                      {
                        OFFSET 4.350578 3e-06 0.0
                        CHANNELS 3 Zrotation Yrotation Xrotation
                        JOINT LeftHandRing4
                        {
                          OFFSET 2.651321 2e-06 -7e-06
                          CHANNELS 3 Zrotation Yrotation Xrotation
                          JOINT LeftHandRingEnd
                          {
                            OFFSET 1.937663 1e-06 -4e-06
                            CHANNELS 3 Zrotation Yrotation Xrotation
                          }
                        }
                      }
                    }
                  }
                  JOINT LeftHandPinky1
                  {
                    OFFSET 2.865315 -1.525436 0.575687
                    CHANNELS 3 Zrotation Yrotation Xrotation
                    JOINT LeftHandPinky2
                    {
                      OFFSET 5.54936 1e-06 -8e-06
                      CHANNELS 3 Zrotation Yrotation Xrotation
                      JOINT LeftHandPinky3
                      {
                        OFFSET 3.070974 0.0 -4e-06
                        CHANNELS 3 Zrotation Yrotation Xrotation
                        JOINT LeftHandPinky4
                        {
                          OFFSET 1.549672 1e-06 0.0
                          CHANNELS 3 Zrotation Yrotation Xrotation
                          JOINT LeftHandPinkyEnd
                          {
                            OFFSET 1.952123 0.0 0.0
                            CHANNELS 3 Zrotation Yrotation Xrotation
                          }
                        }
                      }
                    }
                  }
                }
              }
            }
          }
          JOINT RightShoulder
          {
            OFFSET 23.161716 5.296122 -1.380114
            CHANNELS 3 Zrotation Yrotation Xrotation
            JOINT RightArm
            {
              OFFSET -16.027195 -2e-06 1.1e-05
              CHANNELS 3 Zrotation Yrotation Xrotation
              JOINT RightForeArm
              {
                OFFSET -28.736639 4e-06 2e-06
                CHANNELS 3 Zrotation Yrotation Xrotation
                JOINT RightHand
                {
                  OFFSET -27.133619 6e-06 0.0
                  CHANNELS 3 Zrotation Yrotation Xrotation
                  JOINT RightHandThumb1
                  {
                    OFFSET -2.274328 -3.351035 -0.83067
                    CHANNELS 3 Zrotation Yrotation Xrotation
                    JOINT RightHandThumb2
                    {
                      OFFSET -4.703594 -3e-06 2e-06
                      CHANNELS 3 Zrotation Yrotation Xrotation
                      JOINT RightHandThumb3
                      {
                        OFFSET -2.794935 -4e-06 -3e-06
                        CHANNELS 3 Zrotation Yrotation Xrotation
                        JOINT RightHandThumbEnd
                        {
                          OFFSET -3.183852 4e-06 1e-06
                          CHANNELS 3 Zrotation Yrotation Xrotation
                        }
                      }
                    }
                  }
                  JOINT RightHandIndex1
                  {
                    OFFSET -3.253496 -2.33755 -0.127667
                    CHANNELS 3 Zrotation Yrotation Xrotation
                    JOINT RightHandIndex2
                    {
                      OFFSET -6.344434 0.0 0.0
                      CHANNELS 3 Zrotation Yrotation Xrotation
                      JOINT RightHandIndex3
                      {
                        OFFSET -3.654871 0.0 -8e-06
                        CHANNELS 3 Zrotation Yrotation Xrotation
                        JOINT RightHandIndex4
                        {
                          OFFSET -2.327586 -1e-06 0.0
                          CHANNELS 3 Zrotation Yrotation Xrotation
                          JOINT RightHandIndexEnd
                          {
                            OFFSET -2.770001 3e-06 8e-06
                            CHANNELS 3 Zrotation Yrotation Xrotation
                          }
                        }
                      }
                    }
                  }
                  JOINT RightHandMiddle1
                  {
                    OFFSET -3.168223 -0.944764 0.411762
                    CHANNELS 3 Zrotation Yrotation Xrotation
                    JOINT RightHandMiddle2
                    {
                      OFFSET -6.266691 -1e-06 -4e-06
                      CHANNELS 3 Zrotation Yrotation Xrotation
                      JOINT RightHandMiddle3
                      {
                        OFFSET -4.348901 0.0 0.0
                        CHANNELS 3 Zrotation Yrotation Xrotation
                        JOINT RightHandMiddle4
                        {
                          OFFSET -3.00024 2e-06 -4e-06
                          CHANNELS 3 Zrotation Yrotation Xrotation
                          JOINT RightHandMiddleEnd
                          {
                            OFFSET -2.321477 -4e-06 -4e-06
                            CHANNELS 3 Zrotation Yrotation Xrotation
                          }
                        }
                      }
                    }
                  }
                  JOINT RightHandRing1
                  {
                    OFFSET -2.885654 0.293261 -0.119232
                    CHANNELS 3 Zrotation Yrotation Xrotation
                    JOINT RightHandRing2
                    {
                      OFFSET -6.032835 -1e-06 -4e-06
                      CHANNELS 3 Zrotation Yrotation Xrotation
                      JOINT RightHandRing3
                      {
                        OFFSET -4.33881 0.0 -4e-06
                        CHANNELS 3 Zrotation Yrotation Xrotation
                        JOINT RightHandRing4
                        {
                          OFFSET -2.654903 -4e-06 -4e-06
                          CHANNELS 3 Zrotation Yrotation Xrotation
                          JOINT RightHandRingEnd
                          {
                            OFFSET -1.935122 0.0 4e-06
                            CHANNELS 3 Zrotation Yrotation Xrotation
                          }
                        }
                      }
                    }
                  }
                  JOINT RightHandPinky1
                  {
                    OFFSET -2.866241 1.503904 -0.60527
                    CHANNELS 3 Zrotation Yrotation Xrotation
                    JOINT RightHandPinky2
                    {
                      OFFSET -5.553177 -2e-06 0.0
                      CHANNELS 3 Zrotation Yrotation Xrotation
                      JOINT RightHandPinky3
                      {
                        OFFSET -3.062664 -1e-06 -4e-06
                        CHANNELS 3 Zrotation Yrotation Xrotation
                        JOINT RightHandPinky4
                        {
                          OFFSET -1.546529 2e-06 4e-06
                          CHANNELS 3 Zrotation Yrotation Xrotation
                          JOINT RightHandPinkyEnd
                          {
                            OFFSET -1.952341 0.0 -4e-06
                            CHANNELS 3 Zrotation Yrotation Xrotation
                          }
                        }
                      }
                    }
                  }
                }
              }
            }
          }
        }
      }
    }
    JOINT LeftLeg
    {
      OFFSET -8.443107 2.567604 10.043214
      CHANNELS 3 Zrotation Yrotation Xrotation
      JOINT LeftShin
      {
        OFFSET 43.229198 1e-06 -1e-06
        CHANNELS 3 Zrotation Yrotation Xrotation
        JOINT LeftFoot
        {
          OFFSET 42.298611 1e-06 1e-06
          CHANNELS 3 Zrotation Yrotation Xrotation
          JOINT LeftToeBase
          {
            OFFSET 14.165858 1e-06 0.0
            CHANNELS 3 Zrotation Yrotation Xrotation
            JOINT LeftToeEnd
            {
              OFFSET 6.7141 -0.234461 0.0
              CHANNELS 3 Zrotation Yrotation Xrotation
            }
          }
        }
      }
    }
    JOINT RightLeg
    {
      OFFSET -8.303923 2.592729 -10.047278
      CHANNELS 3 Zrotation Yrotation Xrotation
      JOINT RightShin
      {
        OFFSET -43.369682 0.0 1e-06
        CHANNELS 3 Zrotation Yrotation Xrotation
        JOINT RightFoot
        {
          OFFSET -42.260784 4e-06 2e-06
          CHANNELS 3 Zrotation Yrotation Xrotation
          JOINT RightToeBase
          {
            OFFSET -14.222245 -2e-06 -1e-06
            CHANNELS 3 Zrotation Yrotation Xrotation
            JOINT RightToeEnd
            {
              OFFSET -6.660062 0.232574 -2e-06
              CHANNELS 3 Zrotation Yrotation Xrotation
            }
          }
        }
      }
    }
  }
}
MOTION
Frames: 4
Frame Time: 0.03333333333333333
0.0 0.0 0.0 0.0 -0.0 0.0 -38.256695 83.468643 191.918228 90.699661 -4.680256 92.776466 12.470967 -0.927654 0.416569 -5.250819 -0.311947 1.557369 27.292534 0.068213 1.471769 18.913166 2.560917 2.848495 -2.610027 -0.526435 -5.124216 -44.954823 -0.549758 -6.970325 6e-06 -0.0 1e-06 -0.044722 -0.028751 0.174484 -0.046854 -0.069374 0.19314 -0.049951 0.001293 0.147778 -83.630745 -80.636909 98.084587 52.707142 -58.275501 -37.133511 123.282021 -0.714221 -0.010769 15.146552 5.636263 40.538139 17.636623 -26.322733 52.411194 -19.466665 -14.395597 29.410393 -3e-06 -8.774818 -3e-06 15.845008 -17.941612 5.936244 -0.609776 -1.795654 -3.889328 -4.807086 -11.046807 -2.937852 9e-06 -20.976015 -0.0 -5.019966 -25.033548 -4.031877 6e-06 -0.0 0.0 -10.634531 -5.686967 -3.56559 10.573275 -17.922951 -3.113901 3e-06 -13.821205 3e-06 -0.501776 -31.181498 -4.027011 -11.771449 -59.69075 7.573058 -13.982706 -7.150193 -2.875044 13.772727 -8.401493 -3.218244 0.34774 -34.211544 0.771656 -0.963026 -17.733368 2.621022 -2e-06 -0.0 -0.0 -17.346407 -20.095207 -4.201785 21.757551 -1.63838 3.866426 1e-06 -6.338825 0.0 -1.697582 -22.591738 -6.194005 -2e-06 -5e-06 -0.0 -121.132126 -81.369209 -48.820393 54.198341 -33.209106 -60.170223 119.015541 0.40062 -0.482521 15.395612 2.375827 35.531147 22.18211 -20.3759 49.933315 -16.701811 -16.74353 28.476528 -3e-06 -12.6906 -0.0 16.488493 -18.010366 2.254462 -0.105921 -1.513855 -4.27588 -5.039043 -5.612869 -2.953556 4e-06 -11.020527 -1e-06 -6.111297 -15.89533 -3.840469 -3e-06 1e-06 -1e-06 -10.283368 -5.680286 -4.341838 11.028291 -11.302407 -2.372631 -1.38427 -14.238581 -6.320119 -0.625439 -26.924191 -3.8276 -5.173593 -50.117939 -3.450831 -13.708523 -7.363472 -3.720938 18.141146 -14.052741 -3.242674 5e-06 -18.78727 -3e-06 -0.429711 -8.456045 2.555505 0.0 -0.0 -0.0 -15.923534 -20.094484 -5.473583 30.41921 -7.190827 1.735925 3e-06 -8.162925 0.0 -1.861901 -22.861469 -6.167942 1e-06 -3e-06 -1e-06 122.518471 -6.140112 -1.507612 34.940487 0.320518 0.649584 -70.242683 3.60361 -10.733072 -9.791518 1.727069 2.008983 -1.0 0.0 -0.0 -35.804161 2.512271 -4.051216 75.381599 0.142448 -0.228857 -111.187546 -7.839734 1.182355 -6.511378 0.651453 1.671829 -1.000001 0.0 0.0 
0.0 0.0 0.0 0.0 -0.0 0.0 -37.800808 82.894661 193.349991 90.73069 -4.367605 91.880974 12.34866 -0.744189 0.546571 -5.377099 -0.320473 1.874973 27.320667 -0.084273 1.613592 19.54804 1.908414 2.772403 -2.630602 -0.580661 -5.200441 -44.837498 -0.351873 -7.18077 5e-06 0.0 0.0 -0.035255 -0.034917 0.192126 -0.028979 -0.082527 0.211128 -0.026519 0.001372 0.163762 -86.485695 -79.981232 101.23127 52.047108 -58.773972 -36.311264 123.550011 -0.865768 -0.080548 15.119469 5.226341 40.522514 17.636639 -26.322741 52.411213 -19.466665 -14.395602 29.410389 -1e-06 -8.774824 -3e-06 15.845492 -18.02207 6.011821 -0.609777 -1.795654 -3.889327 -4.807091 -11.046813 -2.937853 4e-06 -20.976023 -0.0 -5.019973 -25.033562 -4.031882 4e-06 -3e-06 -0.0 -10.634538 -5.686972 -3.565589 10.573277 -17.922955 -3.1139 3e-06 -13.821211 2e-06 -0.501781 -31.181507 -4.027012 -11.768573 -59.78904 7.63973 -13.982719 -7.150201 -2.875041 13.772733 -8.401494 -3.218246 0.347732 -34.211559 0.771657 -0.963031 -17.733372 2.621021 -0.0 1e-06 -0.0 -17.346428 -20.095222 -4.201783 21.757568 -1.638375 3.866429 1e-06 -6.338826 0.0 -1.69759 -22.591751 -6.19401 -1e-06 -3e-06 -0.0 -121.641708 -80.913429 -48.019524 54.597923 -32.885979 -59.896503 118.708824 0.366382 -0.599923 15.472836 2.168044 35.150299 22.182116 -20.375891 49.933323 -16.701818 -16.74353 28.476534 -4e-06 -12.690603 0.0 16.252571 -17.978027 2.292171 -0.105921 -1.513854 -4.275881 -5.03904 -5.612872 -2.953556 3e-06 -11.020527 -1e-06 -6.111297 -15.895334 -3.840471 -1e-06 0.0 0.0 -10.283372 -5.680287 -4.341838 11.028297 -11.302405 -2.372636 -1.384269 -14.238581 -6.320122 -0.625434 -26.924192 -3.827607 -5.169265 -49.82246 -3.457708 -13.708525 -7.363476 -3.720939 18.141151 -14.052742 -3.242675 7e-06 -18.78727 -5e-06 -0.42971 -8.456045 2.555504 -1e-06 -0.0 -0.0 -15.923536 -20.094482 -5.473585 30.419222 -7.190827 1.735925 1e-06 -8.162925 -0.0 -1.8619 -22.861471 -6.167946 0.0 -3e-06 -1e-06 123.546638 -5.666676 1.124619 28.010185 0.334452 0.804177 -67.436073 1.704988 -10.546611 -9.634227 1.765877 1.99705 -0.999998 0.0 0.0 -34.810661 2.41995 -3.656828 76.573143 0.116285 -0.160887 -112.431946 -7.081234 0.968041 -6.861535 0.650529 1.659482 -1.000002 -0.0 0.0 
0.0 0.0 0.0 0.0 -0.0 0.0 -37.280239 82.398415 194.851898 90.896301 -4.056205 91.0718 12.230366 -0.699584 0.585824 -5.548416 -0.343029 2.171362 27.43634 -0.207491 1.678516 20.005127 1.416187 2.745241 -2.531899 -0.636088 -5.254275 -44.878105 -0.317026 -7.27723 5e-06 0.0 0.0 -0.020006 -0.041912 0.223701 0.003142 -0.091843 0.247376 0.006529 -0.003007 0.188785 -88.754494 -79.41188 103.790092 51.507469 -59.07206 -35.737728 123.716324 -1.051376 -0.009718 15.183803 4.950689 40.259678 17.636625 -26.322723 52.411182 -19.46666 -14.395592 29.410385 -2e-06 -8.774819 -4e-06 15.977956 -18.11178 5.960624 -0.609777 -1.795654 -3.889327 -4.807087 -11.046807 -2.93785 5e-06 -20.976015 -1e-06 -5.019967 -25.033546 -4.031881 6e-06 -0.0 1e-06 -10.634528 -5.686967 -3.565588 10.573271 -17.922945 -3.113901 4e-06 -13.821204 1e-06 -0.501773 -31.181498 -4.027016 -11.916713 -59.889816 7.761505 -13.982709 -7.150195 -2.875042 13.772726 -8.401491 -3.218242 0.347735 -34.211536 0.771656 -0.963026 -17.733366 2.621019 -0.0 1e-06 -0.0 -17.346409 -20.095207 -4.201782 21.757551 -1.638376 3.866425 0.0 -6.338823 0.0 -1.697588 -22.591734 -6.194004 1e-06 -5e-06 0.0 -121.09214 -80.705513 -48.190823 54.824009 -32.408348 -59.522449 118.360298 0.207263 -0.505086 15.673001 2.136938 34.826683 22.18211 -20.375893 49.933327 -16.701811 -16.743532 28.476536 -2e-06 -12.6906 0.0 16.174135 -17.995701 2.349036 -0.105916 -1.513856 -4.27588 -5.03904 -5.612869 -2.953557 5e-06 -11.020521 -3e-06 -6.111298 -15.895328 -3.84047 1e-06 0.0 -2e-06 -10.283364 -5.680287 -4.341839 11.028294 -11.302402 -2.372633 -1.38427 -14.23858 -6.32012 -0.625438 -26.924187 -3.827602 -5.105294 -49.63792 -3.34726 -13.708519 -7.363474 -3.720942 18.141146 -14.052739 -3.242676 4e-06 -18.787266 -3e-06 -0.42971 -8.456042 2.555502 0.0 0.0 0.0 -15.923531 -20.094479 -5.473588 30.41921 -7.190824 1.735922 1e-06 -8.162925 0.0 -1.861902 -22.861467 -6.167943 1e-06 -3e-06 -2e-06 124.02845 -5.245809 3.204827 25.603008 0.306614 0.96196 -65.147163 0.586459 -9.320694 -9.406628 1.776245 2.012234 -0.999998 -0.0 -0.0 -33.784588 1.95541 -3.305889 77.919365 0.119781 -0.154095 -113.092224 -6.233999 0.595342 -7.341006 0.637706 1.653593 -1.000001 0.0 0.0 
0.0 0.0 0.0 0.0 -0.0 0.0 -36.707069 81.969246 196.357101 91.183228 -3.854864 90.464088 12.074863 -0.781264 0.563267 -5.587931 -0.384975 2.348251 27.585518 -0.367594 1.690323 20.168491 1.101543 2.706747 -2.526792 -0.72985 -5.217067 -44.813778 -0.270255 -7.322699 4e-06 0.0 0.0 -0.023968 -0.040142 0.221559 0.000148 -0.096252 0.246082 0.001557 0.00526 0.185768 -90.163582 -79.111717 105.269493 50.837532 -59.280155 -35.061443 123.945015 -1.114923 -0.001549 15.293283 4.777348 40.208523 17.636639 -26.322744 52.411221 -19.466665 -14.395598 29.410402 -0.0 -8.774823 -2e-06 16.083828 -18.174217 5.957642 -0.609775 -1.795654 -3.889333 -4.807092 -11.046814 -2.937852 1e-06 -20.976025 -0.0 -5.019974 -25.033566 -4.031883 6e-06 -0.0 0.0 -10.634537 -5.686974 -3.56559 10.573275 -17.922958 -3.113904 1e-06 -13.821216 1e-06 -0.501777 -31.181522 -4.027022 -12.067226 -60.018307 7.91318 -13.982719 -7.150202 -2.875045 13.772733 -8.401496 -3.218243 0.347731 -34.211563 0.771655 -0.963031 -17.733376 2.62102 -0.0 -1e-06 -0.0 -17.34643 -20.095228 -4.201782 21.757568 -1.638374 3.866428 -0.0 -6.338827 -0.0 -1.697593 -22.591751 -6.194009 -3e-06 -2e-06 -1e-06 -120.389542 -80.658195 -48.652664 55.051167 -32.219727 -59.163399 118.0868 0.200658 -0.341581 15.942654 2.026271 34.89357 22.182121 -20.3759 49.933331 -16.701815 -16.743528 28.476534 -4e-06 -12.690609 -1e-06 16.175056 -18.094835 2.428107 -0.105921 -1.513857 -4.275882 -5.039042 -5.612873 -2.953557 4e-06 -11.020528 -3e-06 -6.111301 -15.895334 -3.840469 -2e-06 -1e-06 0.0 -10.283374 -5.680292 -4.341838 11.028299 -11.302407 -2.372635 -1.384271 -14.238585 -6.320121 -0.62544 -26.924198 -3.827605 -5.149933 -49.653336 -3.26361 -13.708529 -7.363479 -3.720938 18.141153 -14.052742 -3.242676 5e-06 -18.787271 -3e-06 -0.429711 -8.456045 2.555504 0.0 1e-06 1e-06 -15.923541 -20.09449 -5.473584 30.419224 -7.190827 1.735925 2e-06 -8.162928 -0.0 -1.861903 -22.861479 -6.167944 0.0 -3e-06 -3e-06 123.855812 -4.763572 4.224067 26.596498 0.222163 1.037479 -63.09935 0.449051 -7.887532 -9.326536 1.76359 2.060285 -1.0 0.0 0.0 -32.804714 1.224146 -2.988539 79.180977 0.067035 -0.105909 -113.528023 -5.3894 0.324252 -8.084426 0.676584 1.650388 -1.000001 -0.0 0.0 
